<svg aria-hidden="true" style="position: absolute; width: 0; height: 0; overflow: hidden;" version="1.1" xmlns="http://www.w3.org/2000/svg" xmlns:xlink="http://www.w3.org/1999/xlink">
<defs>
<symbol id="icon-blank" viewBox="0 0 32 32">
<path d="M21.441 10.182h-8.653c-0.106 0.001-0.192 0.087-0.192 0.193 0 0 0 0.001 0 0.001v-0 2.909h0.385v-2.715h8.268v10.667c0 0.001 0 0.003 0 0.004 0 0.101-0.078 0.183-0.177 0.19l-0.001 0c-0.016 0-0.033-0.001-0.049-0.002-0.034-0.001-0.068-0.002-0.102-0.005-0.003 0-0.006 0-0.008-0.001-0.628-0.069-1.124-0.569-1.193-1.203 0-0.003-0.001-0.006-0.001-0.008-0.004-0.041-0.007-0.088-0.007-0.135 0-0.001 0-0.002 0-0.004v0-0.388c0-0 0-0.001 0-0.001 0-0.106-0.086-0.193-0.192-0.193h-6.538v-3.491h-0.385v3.491h-1.538c-0.106 0-0.192 0.087-0.192 0.193 0 0 0 0.001 0 0.001v-0 0.388c0.001 0.963 0.775 1.744 1.731 1.745h8.48c0.31-0.010 0.558-0.264 0.558-0.575 0-0.002 0-0.005-0-0.007v0-10.861c0-0 0-0.001 0-0.001 0-0.106-0.086-0.193-0.192-0.193h-0zM12.595 21.43c-0.743-0.001-1.345-0.608-1.346-1.358v-0.194h8.076v0.194c0 0.064 0.004 0.128 0.011 0.191 0.002 0.017 0.005 0.033 0.007 0.050 0.006 0.047 0.014 0.094 0.024 0.14 0.003 0.016 0.008 0.032 0.012 0.048 0.018 0.073 0.037 0.131 0.058 0.189l-0.004-0.012c0.017 0.048 0.037 0.095 0.059 0.141 0.005 0.009 0.009 0.019 0.013 0.028 0.024 0.049 0.051 0.097 0.079 0.143 0.004 0.006 0.007 0.012 0.011 0.020 0.031 0.049 0.065 0.097 0.101 0.143l0.006 0.008c0.079 0.1 0.166 0.188 0.261 0.266l0.003 0.002-7.373-0.001z"></path>
<path d="M16.441 15.612c0.051 0 0.1-0.020 0.136-0.057l0.769-0.776c0.035-0.035 0.056-0.084 0.056-0.137s-0.022-0.102-0.056-0.137v0l-0.769-0.776c-0.035-0.035-0.083-0.057-0.136-0.057h-5.384c-0.531 0-0.961 0.434-0.961 0.97s0.431 0.97 0.961 0.97h5.384zM16.392 14.091l0.547 0.552-0.547 0.552-0.137-0.552 0.137-0.552zM11.634 14.060h4.369l-0.096 0.388h-3.889v0.388h3.888l0.096 0.388h-4.369v-1.164zM10.48 14.642c0-0.321 0.258-0.582 0.577-0.582h0.192v1.164h-0.192c-0.319-0.001-0.577-0.26-0.577-0.579 0-0.001 0-0.002 0-0.002v0zM14.518 18.521h5.769c0.106-0.001 0.192-0.087 0.192-0.193 0-0 0-0.001 0-0.001v0-5.818c0-0 0-0 0-0.001 0-0.106-0.086-0.193-0.192-0.193h-0c-0.053 0-0.101 0.022-0.136 0.057v0l-5.769 5.818c-0.035 0.035-0.056 0.084-0.056 0.137s0.021 0.102 0.056 0.137l-0-0c0.035 0.035 0.083 0.057 0.136 0.057h0zM20.095 12.977v0.502h-0.385v0.388h0.385v0.388h-0.385v0.388h0.385v0.388h-0.385v0.388h0.385v0.388h-0.385v0.388h0.385v0.388h-0.385v0.388h0.385v0.388h-0.385v0.388h0.385v0.388h-0.385v-0.388h-0.385v0.388h-0.385v-0.388h-0.385v0.388h-0.385v-0.388h-0.385v0.388h-0.385v-0.388h-0.385v0.388h-0.385v-0.388h-0.385v0.388h-0.385v-0.388h-0.385v0.388h-0.497l5.113-5.156z"></path>
<path d="M17.304 17.358h1.83c0.106-0.001 0.192-0.087 0.192-0.193 0-0 0-0.001 0-0.001v0-1.845c0-0 0-0.001 0-0.001 0-0.106-0.086-0.193-0.192-0.193h-0c-0 0-0 0-0 0-0.053 0-0.101 0.022-0.136 0.057v0l-1.83 1.846c-0.035 0.035-0.056 0.084-0.056 0.137s0.022 0.102 0.056 0.137v0c0.035 0.035 0.083 0.057 0.136 0.057h0zM18.941 15.787v1.183h-1.173l1.173-1.183zM18.941 11.345h-3.846v0.388h3.846v-0.388zM19.518 12.121h-5v0.388h5v-0.388zM14.518 16.194h-1.153v0.388h1.153v-0.388zM14.134 16.97h-0.769v0.388h0.769v-0.388z"></path>
</symbol>
<symbol id="icon-web-programming" viewBox="0 0 33 32">
<path d="M12.747 22.425c-0 0-0.001 0-0.001 0-0.132 0-0.252-0.048-0.345-0.127l0.001 0.001-3.451-2.911c-0.115-0.097-0.187-0.241-0.187-0.402s0.072-0.305 0.186-0.401l0.001-0.001 3.451-2.911c0.093-0.079 0.214-0.126 0.346-0.126 0.162 0 0.307 0.072 0.406 0.185l0.001 0.001c0.079 0.091 0.127 0.211 0.127 0.343 0 0.161-0.072 0.305-0.186 0.401l-0.001 0.001-2.975 2.509 2.975 2.509c0.224 0.189 0.251 0.523 0.060 0.745-0.098 0.114-0.243 0.186-0.404 0.186-0 0-0.001 0-0.001 0h0zM19.561 22.425c-0 0-0.001 0-0.001 0-0.161 0-0.306-0.072-0.404-0.185l-0.001-0.001c-0.079-0.091-0.127-0.211-0.127-0.343 0-0.161 0.072-0.305 0.186-0.401l0.001-0.001 2.974-2.509-2.974-2.509c-0.115-0.097-0.188-0.241-0.188-0.402 0-0.131 0.048-0.251 0.128-0.343l-0.001 0.001c0.099-0.114 0.244-0.186 0.406-0.186 0.132 0 0.253 0.048 0.347 0.127l-0.001-0.001 3.452 2.911c0.115 0.097 0.187 0.241 0.187 0.402s-0.072 0.305-0.186 0.401l-0.001 0.001-3.452 2.912c-0.092 0.078-0.212 0.125-0.343 0.125-0.001 0-0.002 0-0.003 0h0zM14.932 24.608c-0.001 0-0.003 0-0.005 0-0.292 0-0.529-0.237-0.529-0.529 0-0.039 0.004-0.076 0.012-0.112l-0.001 0.003 2.151-10.115c0.060-0.234 0.269-0.404 0.517-0.404 0.295 0 0.533 0.239 0.533 0.533 0 0.031-0.003 0.062-0.008 0.092l0-0.003-2.151 10.115c-0.054 0.242-0.266 0.42-0.521 0.42h-0z"></path>
<path d="M28.726 30.119h-25.146c-1.973 0-3.581-1.59-3.581-3.547v-21.138c0-1.957 1.606-3.548 3.581-3.548h25.146c1.974 0 3.581 1.591 3.581 3.548v21.138c0 1.956-1.606 3.547-3.581 3.547zM3.581 2.944c-1.387 0-2.514 1.117-2.514 2.491v21.138c0 1.373 1.129 2.491 2.514 2.491h25.146c1.387 0 2.514-1.118 2.514-2.491v-21.138c0-1.374-1.127-2.491-2.514-2.491h-25.146z"></path>
<path d="M31.774 10.347h-31.241c-0.001 0-0.001 0-0.002 0-0.293 0-0.53-0.237-0.531-0.529v-0c0-0.291 0.239-0.528 0.533-0.528h31.241c0.295 0 0.533 0.237 0.533 0.528-0.001 0.292-0.239 0.529-0.531 0.529-0.001 0-0.002 0-0.002 0h0zM9.113 7.819c-0.002 0-0.003 0-0.005 0-0.926 0-1.677-0.748-1.682-1.672v-0.001c0-0.922 0.757-1.671 1.687-1.671 0.931 0 1.689 0.75 1.689 1.671s-0.757 1.673-1.689 1.673zM9.113 5.531c-0.001 0-0.001 0-0.002 0-0.341 0-0.617 0.275-0.619 0.615v0c0.002 0.34 0.278 0.615 0.619 0.615 0.001 0 0.002 0 0.002 0h-0c0.001 0 0.002 0 0.003 0 0.341 0 0.617-0.275 0.619-0.615v-0c-0.002-0.34-0.278-0.615-0.619-0.615-0.001 0-0.002 0-0.003 0h0zM3.927 7.802c-0.002 0-0.003 0-0.005 0-0.925 0-1.676-0.747-1.682-1.671v-0.001c0-0.922 0.757-1.671 1.687-1.671 0.931 0 1.689 0.75 1.689 1.671s-0.757 1.671-1.689 1.671zM3.927 5.515c-0.001 0-0.001 0-0.002 0-0.341 0-0.617 0.275-0.619 0.615v0c0.002 0.34 0.278 0.615 0.619 0.615 0.001 0 0.002 0 0.002 0h-0c0.001 0 0.001 0 0.002 0 0.341 0 0.617-0.275 0.619-0.615v-0c-0.002-0.34-0.278-0.615-0.619-0.615-0.001 0-0.002 0-0.002 0h0zM14.3 7.834c-0.002 0-0.003 0-0.005 0-0.925 0-1.676-0.747-1.682-1.671v-0.001c0-0.922 0.757-1.671 1.687-1.671 0.931 0 1.689 0.75 1.689 1.671s-0.757 1.671-1.689 1.671zM14.3 5.547c-0.001 0-0.001 0-0.002 0-0.341 0-0.617 0.275-0.619 0.615v0c0.002 0.34 0.278 0.615 0.619 0.615 0.001 0 0.002 0 0.002 0h-0c0.001 0 0.002 0 0.003 0 0.341 0 0.617-0.275 0.619-0.615v-0c-0.002-0.34-0.278-0.615-0.619-0.615-0.001 0-0.002 0-0.003 0h0z"></path>
</symbol>
</defs>
</svg>
